<mxfile host="app.diagrams.net" modified="2021-07-10T21:37:44.458Z" agent="5.0 (Windows NT 10.0; Win64; x64) AppleWebKit/537.36 (KHTML, like Gecko) Chrome/91.0.4472.124 Safari/537.36" etag="2R53-eFYKk32d5Dg9Lkf" version="14.8.5" type="github">
  <diagram id="3MBLqWPYzSCNdpFBCNdg" name="Page-1">
    <mxGraphModel dx="981" dy="508" grid="1" gridSize="10" guides="1" tooltips="1" connect="1" arrows="1" fold="1" page="1" pageScale="1" pageWidth="850" pageHeight="1100" math="0" shadow="0">
      <root>
        <mxCell id="0" />
        <mxCell id="1" parent="0" />
        <mxCell id="zbI6LSLj76RK448dhXUD-1" value="" style="rounded=0;whiteSpace=wrap;html=1;" vertex="1" parent="1">
          <mxGeometry x="100" y="170" width="620" height="460" as="geometry" />
        </mxCell>
        <mxCell id="zbI6LSLj76RK448dhXUD-2" value="" style="endArrow=none;html=1;entryX=1.004;entryY=0.06;entryDx=0;entryDy=0;entryPerimeter=0;exitX=-0.001;exitY=0.057;exitDx=0;exitDy=0;exitPerimeter=0;" edge="1" parent="1" source="zbI6LSLj76RK448dhXUD-1" target="zbI6LSLj76RK448dhXUD-1">
          <mxGeometry width="50" height="50" relative="1" as="geometry">
            <mxPoint x="107.5" y="180" as="sourcePoint" />
            <mxPoint x="662.5" y="180" as="targetPoint" />
          </mxGeometry>
        </mxCell>
        <mxCell id="zbI6LSLj76RK448dhXUD-10" style="edgeStyle=orthogonalEdgeStyle;rounded=0;orthogonalLoop=1;jettySize=auto;html=1;entryX=0.5;entryY=0;entryDx=0;entryDy=0;entryPerimeter=0;" edge="1" parent="1" source="zbI6LSLj76RK448dhXUD-5" target="zbI6LSLj76RK448dhXUD-13">
          <mxGeometry relative="1" as="geometry">
            <mxPoint x="140" y="240" as="targetPoint" />
          </mxGeometry>
        </mxCell>
        <mxCell id="zbI6LSLj76RK448dhXUD-5" value="" style="ellipse;whiteSpace=wrap;html=1;aspect=fixed;" vertex="1" parent="1">
          <mxGeometry x="147.5" y="200" width="20" height="20" as="geometry" />
        </mxCell>
        <mxCell id="zbI6LSLj76RK448dhXUD-8" value="" style="endArrow=none;dashed=1;html=1;exitX=0.188;exitY=1.004;exitDx=0;exitDy=0;exitPerimeter=0;entryX=0.183;entryY=0.001;entryDx=0;entryDy=0;entryPerimeter=0;" edge="1" parent="1" source="zbI6LSLj76RK448dhXUD-1" target="zbI6LSLj76RK448dhXUD-1">
          <mxGeometry width="50" height="50" relative="1" as="geometry">
            <mxPoint x="170" y="330" as="sourcePoint" />
            <mxPoint x="170" y="149" as="targetPoint" />
          </mxGeometry>
        </mxCell>
        <mxCell id="zbI6LSLj76RK448dhXUD-17" style="edgeStyle=orthogonalEdgeStyle;rounded=0;orthogonalLoop=1;jettySize=auto;html=1;" edge="1" parent="1" source="zbI6LSLj76RK448dhXUD-13" target="zbI6LSLj76RK448dhXUD-16">
          <mxGeometry relative="1" as="geometry" />
        </mxCell>
        <mxCell id="zbI6LSLj76RK448dhXUD-13" value="&lt;font style=&quot;font-size: 11px&quot;&gt;Membuka Aplikasi&lt;/font&gt;" style="strokeWidth=2;html=1;shape=mxgraph.flowchart.terminator;whiteSpace=wrap;" vertex="1" parent="1">
          <mxGeometry x="115" y="240" width="85" height="40" as="geometry" />
        </mxCell>
        <mxCell id="zbI6LSLj76RK448dhXUD-22" style="edgeStyle=orthogonalEdgeStyle;rounded=0;orthogonalLoop=1;jettySize=auto;html=1;entryX=0.987;entryY=0.625;entryDx=0;entryDy=0;entryPerimeter=0;" edge="1" parent="1" source="zbI6LSLj76RK448dhXUD-16" target="zbI6LSLj76RK448dhXUD-18">
          <mxGeometry relative="1" as="geometry">
            <Array as="points">
              <mxPoint x="295" y="315" />
            </Array>
          </mxGeometry>
        </mxCell>
        <mxCell id="zbI6LSLj76RK448dhXUD-16" value="Menampilkan Halaman Login" style="strokeWidth=2;html=1;shape=mxgraph.flowchart.terminator;whiteSpace=wrap;" vertex="1" parent="1">
          <mxGeometry x="250" y="240" width="90" height="40" as="geometry" />
        </mxCell>
        <mxCell id="zbI6LSLj76RK448dhXUD-24" style="edgeStyle=orthogonalEdgeStyle;rounded=0;orthogonalLoop=1;jettySize=auto;html=1;entryX=-0.009;entryY=0.594;entryDx=0;entryDy=0;entryPerimeter=0;" edge="1" parent="1" source="zbI6LSLj76RK448dhXUD-18" target="zbI6LSLj76RK448dhXUD-23">
          <mxGeometry relative="1" as="geometry">
            <Array as="points">
              <mxPoint x="150" y="364" />
            </Array>
          </mxGeometry>
        </mxCell>
        <mxCell id="zbI6LSLj76RK448dhXUD-18" value="Masukkan Email dan Password" style="strokeWidth=2;html=1;shape=mxgraph.flowchart.terminator;whiteSpace=wrap;" vertex="1" parent="1">
          <mxGeometry x="115" y="290" width="90" height="40" as="geometry" />
        </mxCell>
        <mxCell id="zbI6LSLj76RK448dhXUD-26" style="edgeStyle=orthogonalEdgeStyle;rounded=0;orthogonalLoop=1;jettySize=auto;html=1;entryX=0;entryY=0.5;entryDx=0;entryDy=0;entryPerimeter=0;" edge="1" parent="1" source="zbI6LSLj76RK448dhXUD-23" target="zbI6LSLj76RK448dhXUD-27">
          <mxGeometry relative="1" as="geometry">
            <mxPoint x="360" y="360" as="targetPoint" />
          </mxGeometry>
        </mxCell>
        <mxCell id="zbI6LSLj76RK448dhXUD-23" value="Enkripsi Email Dan Password" style="strokeWidth=2;html=1;shape=mxgraph.flowchart.terminator;whiteSpace=wrap;" vertex="1" parent="1">
          <mxGeometry x="250" y="340" width="90" height="40" as="geometry" />
        </mxCell>
        <mxCell id="zbI6LSLj76RK448dhXUD-30" style="edgeStyle=orthogonalEdgeStyle;rounded=0;orthogonalLoop=1;jettySize=auto;html=1;" edge="1" parent="1" source="zbI6LSLj76RK448dhXUD-27" target="zbI6LSLj76RK448dhXUD-29">
          <mxGeometry relative="1" as="geometry" />
        </mxCell>
        <mxCell id="zbI6LSLj76RK448dhXUD-27" value="Kirim hasil Enkripsi" style="strokeWidth=2;html=1;shape=mxgraph.flowchart.terminator;whiteSpace=wrap;" vertex="1" parent="1">
          <mxGeometry x="470" y="340" width="90" height="40" as="geometry" />
        </mxCell>
        <mxCell id="zbI6LSLj76RK448dhXUD-32" style="edgeStyle=orthogonalEdgeStyle;rounded=0;orthogonalLoop=1;jettySize=auto;html=1;" edge="1" parent="1" source="zbI6LSLj76RK448dhXUD-29" target="zbI6LSLj76RK448dhXUD-31">
          <mxGeometry relative="1" as="geometry" />
        </mxCell>
        <mxCell id="zbI6LSLj76RK448dhXUD-29" value="dekripsi" style="strokeWidth=2;html=1;shape=mxgraph.flowchart.terminator;whiteSpace=wrap;" vertex="1" parent="1">
          <mxGeometry x="600" y="340" width="90" height="40" as="geometry" />
        </mxCell>
        <mxCell id="zbI6LSLj76RK448dhXUD-34" style="edgeStyle=orthogonalEdgeStyle;rounded=0;orthogonalLoop=1;jettySize=auto;html=1;" edge="1" parent="1" source="zbI6LSLj76RK448dhXUD-31" target="zbI6LSLj76RK448dhXUD-33">
          <mxGeometry relative="1" as="geometry" />
        </mxCell>
        <mxCell id="zbI6LSLj76RK448dhXUD-38" style="edgeStyle=orthogonalEdgeStyle;rounded=0;orthogonalLoop=1;jettySize=auto;html=1;entryX=1;entryY=0.5;entryDx=0;entryDy=0;entryPerimeter=0;" edge="1" parent="1" source="zbI6LSLj76RK448dhXUD-31" target="zbI6LSLj76RK448dhXUD-37">
          <mxGeometry relative="1" as="geometry" />
        </mxCell>
        <mxCell id="zbI6LSLj76RK448dhXUD-31" value="" style="rhombus;whiteSpace=wrap;html=1;" vertex="1" parent="1">
          <mxGeometry x="620" y="400" width="50" height="50" as="geometry" />
        </mxCell>
        <mxCell id="zbI6LSLj76RK448dhXUD-40" style="edgeStyle=orthogonalEdgeStyle;rounded=0;orthogonalLoop=1;jettySize=auto;html=1;entryX=1;entryY=0.5;entryDx=0;entryDy=0;entryPerimeter=0;" edge="1" parent="1" source="zbI6LSLj76RK448dhXUD-33" target="zbI6LSLj76RK448dhXUD-39">
          <mxGeometry relative="1" as="geometry" />
        </mxCell>
        <mxCell id="zbI6LSLj76RK448dhXUD-33" value="Enkripsi detail login" style="strokeWidth=2;html=1;shape=mxgraph.flowchart.terminator;whiteSpace=wrap;" vertex="1" parent="1">
          <mxGeometry x="600" y="470" width="90" height="40" as="geometry" />
        </mxCell>
        <mxCell id="zbI6LSLj76RK448dhXUD-35" value="Berhasil" style="text;html=1;align=center;verticalAlign=middle;resizable=0;points=[];autosize=1;strokeColor=none;" vertex="1" parent="1">
          <mxGeometry x="650" y="440" width="60" height="20" as="geometry" />
        </mxCell>
        <mxCell id="zbI6LSLj76RK448dhXUD-36" value="Gagal" style="text;html=1;align=center;verticalAlign=middle;resizable=0;points=[];autosize=1;strokeColor=none;" vertex="1" parent="1">
          <mxGeometry x="580" y="405" width="50" height="20" as="geometry" />
        </mxCell>
        <mxCell id="zbI6LSLj76RK448dhXUD-44" style="edgeStyle=orthogonalEdgeStyle;rounded=0;orthogonalLoop=1;jettySize=auto;html=1;" edge="1" parent="1" source="zbI6LSLj76RK448dhXUD-37" target="zbI6LSLj76RK448dhXUD-43">
          <mxGeometry relative="1" as="geometry" />
        </mxCell>
        <mxCell id="zbI6LSLj76RK448dhXUD-37" value="Response 406" style="strokeWidth=2;html=1;shape=mxgraph.flowchart.terminator;whiteSpace=wrap;" vertex="1" parent="1">
          <mxGeometry x="470" y="405" width="90" height="40" as="geometry" />
        </mxCell>
        <mxCell id="zbI6LSLj76RK448dhXUD-42" style="edgeStyle=orthogonalEdgeStyle;rounded=0;orthogonalLoop=1;jettySize=auto;html=1;entryX=1;entryY=0.5;entryDx=0;entryDy=0;entryPerimeter=0;" edge="1" parent="1" source="zbI6LSLj76RK448dhXUD-39" target="zbI6LSLj76RK448dhXUD-41">
          <mxGeometry relative="1" as="geometry" />
        </mxCell>
        <mxCell id="zbI6LSLj76RK448dhXUD-39" value="Response 200" style="strokeWidth=2;html=1;shape=mxgraph.flowchart.terminator;whiteSpace=wrap;" vertex="1" parent="1">
          <mxGeometry x="470" y="470" width="90" height="40" as="geometry" />
        </mxCell>
        <mxCell id="zbI6LSLj76RK448dhXUD-50" style="edgeStyle=orthogonalEdgeStyle;rounded=0;orthogonalLoop=1;jettySize=auto;html=1;" edge="1" parent="1" source="zbI6LSLj76RK448dhXUD-41" target="zbI6LSLj76RK448dhXUD-49">
          <mxGeometry relative="1" as="geometry" />
        </mxCell>
        <mxCell id="zbI6LSLj76RK448dhXUD-41" value="Deskripsi" style="strokeWidth=2;html=1;shape=mxgraph.flowchart.terminator;whiteSpace=wrap;" vertex="1" parent="1">
          <mxGeometry x="360" y="470" width="90" height="40" as="geometry" />
        </mxCell>
        <mxCell id="zbI6LSLj76RK448dhXUD-59" style="edgeStyle=orthogonalEdgeStyle;rounded=0;orthogonalLoop=1;jettySize=auto;html=1;" edge="1" parent="1" source="zbI6LSLj76RK448dhXUD-43">
          <mxGeometry relative="1" as="geometry">
            <mxPoint x="240" y="590" as="targetPoint" />
          </mxGeometry>
        </mxCell>
        <mxCell id="zbI6LSLj76RK448dhXUD-43" value="Tampil Gagal Login" style="strokeWidth=2;html=1;shape=mxgraph.flowchart.terminator;whiteSpace=wrap;" vertex="1" parent="1">
          <mxGeometry x="360" y="405" width="90" height="40" as="geometry" />
        </mxCell>
        <mxCell id="zbI6LSLj76RK448dhXUD-52" style="edgeStyle=orthogonalEdgeStyle;rounded=0;orthogonalLoop=1;jettySize=auto;html=1;entryX=1;entryY=0.5;entryDx=0;entryDy=0;entryPerimeter=0;" edge="1" parent="1" source="zbI6LSLj76RK448dhXUD-49" target="zbI6LSLj76RK448dhXUD-51">
          <mxGeometry relative="1" as="geometry" />
        </mxCell>
        <mxCell id="zbI6LSLj76RK448dhXUD-55" style="edgeStyle=orthogonalEdgeStyle;rounded=0;orthogonalLoop=1;jettySize=auto;html=1;entryX=0.5;entryY=0;entryDx=0;entryDy=0;entryPerimeter=0;" edge="1" parent="1" source="zbI6LSLj76RK448dhXUD-49" target="zbI6LSLj76RK448dhXUD-53">
          <mxGeometry relative="1" as="geometry" />
        </mxCell>
        <mxCell id="zbI6LSLj76RK448dhXUD-49" value="" style="rhombus;whiteSpace=wrap;html=1;" vertex="1" parent="1">
          <mxGeometry x="390" y="535" width="30" height="30" as="geometry" />
        </mxCell>
        <mxCell id="zbI6LSLj76RK448dhXUD-58" style="edgeStyle=orthogonalEdgeStyle;rounded=0;orthogonalLoop=1;jettySize=auto;html=1;" edge="1" parent="1" source="zbI6LSLj76RK448dhXUD-51" target="zbI6LSLj76RK448dhXUD-56">
          <mxGeometry relative="1" as="geometry" />
        </mxCell>
        <mxCell id="zbI6LSLj76RK448dhXUD-51" value="Tampil Gagal Login" style="strokeWidth=2;html=1;shape=mxgraph.flowchart.terminator;whiteSpace=wrap;" vertex="1" parent="1">
          <mxGeometry x="280" y="530" width="90" height="40" as="geometry" />
        </mxCell>
        <mxCell id="zbI6LSLj76RK448dhXUD-57" style="edgeStyle=orthogonalEdgeStyle;rounded=0;orthogonalLoop=1;jettySize=auto;html=1;entryX=1;entryY=0.5;entryDx=0;entryDy=0;" edge="1" parent="1" source="zbI6LSLj76RK448dhXUD-53" target="zbI6LSLj76RK448dhXUD-56">
          <mxGeometry relative="1" as="geometry" />
        </mxCell>
        <mxCell id="zbI6LSLj76RK448dhXUD-53" value="Tampil Berhasil Login" style="strokeWidth=2;html=1;shape=mxgraph.flowchart.terminator;whiteSpace=wrap;" vertex="1" parent="1">
          <mxGeometry x="360" y="580" width="90" height="40" as="geometry" />
        </mxCell>
        <mxCell id="zbI6LSLj76RK448dhXUD-56" value="" style="ellipse;whiteSpace=wrap;html=1;aspect=fixed;gradientColor=#000000;" vertex="1" parent="1">
          <mxGeometry x="230" y="590" width="20" height="20" as="geometry" />
        </mxCell>
        <mxCell id="zbI6LSLj76RK448dhXUD-60" value="User" style="text;html=1;align=center;verticalAlign=middle;resizable=0;points=[];autosize=1;strokeColor=none;" vertex="1" parent="1">
          <mxGeometry x="137.5" y="170" width="40" height="20" as="geometry" />
        </mxCell>
        <mxCell id="zbI6LSLj76RK448dhXUD-61" value="Aplikasi Digital Banking" style="text;html=1;align=center;verticalAlign=middle;resizable=0;points=[];autosize=1;strokeColor=none;" vertex="1" parent="1">
          <mxGeometry x="290" y="170" width="140" height="20" as="geometry" />
        </mxCell>
        <mxCell id="zbI6LSLj76RK448dhXUD-62" value="" style="endArrow=none;dashed=1;html=1;entryX=0.776;entryY=0.001;entryDx=0;entryDy=0;entryPerimeter=0;" edge="1" parent="1" target="zbI6LSLj76RK448dhXUD-1">
          <mxGeometry width="50" height="50" relative="1" as="geometry">
            <mxPoint x="580" y="631.3793103448276" as="sourcePoint" />
            <mxPoint x="580" y="190" as="targetPoint" />
          </mxGeometry>
        </mxCell>
        <mxCell id="zbI6LSLj76RK448dhXUD-64" value="Aplikasi Virtual Account&lt;br&gt;Machine" style="text;html=1;align=center;verticalAlign=middle;resizable=0;points=[];autosize=1;strokeColor=none;" vertex="1" parent="1">
          <mxGeometry x="575" y="170" width="140" height="30" as="geometry" />
        </mxCell>
      </root>
    </mxGraphModel>
  </diagram>
</mxfile>
